# xmcd CD database file
#
# Track frame offsets:
#	150
#	36932
#	63485
#	89190
#	108385
#	136405
#	158310
#	181820
#	205902
#	229300
#
# Disc length: 3456 seconds
#
# Revision: 0
# Processed by: cddbd v1.4PL0 Copyright (c) Steve Scherf et al.
# Submitted via: CDex 1.50Beta3
#
DISCID=870d7e0a
DTITLE=Chickenshack - Stay Up II
DYEAR=1992
DGENRE=Jazz
TTITLE0=Still At Temps
TTITLE1=Fill It Out
TTITLE2=I Remember You
TTITLE3=2.5 Nights
TTITLE4=After The Flight
TTITLE5=Just Go On
TTITLE6=Impulse Love
TTITLE7=I Don't Wanna Be Alone
TTITLE8=Forever
TTITLE9=Loretta
EXTD=YEAR: 1992
EXTT0=
EXTT1=
EXTT2=
EXTT3=
EXTT4=
EXTT5=
EXTT6=
EXTT7=
EXTT8=
EXTT9=
PLAYORDER=
